<svg width="214" height="230" viewBox="0 0 214 230" fill="none" xmlns="http://www.w3.org/2000/svg">
<path d="M106.656 91.5787V228.949L0 182.881L0.508825 46.0074L106.656 91.5787Z" fill="#418DF9"/>
<path d="M106.658 91.6606V229.031L212.795 184.554V46.4459L106.658 91.6606Z" fill="#A2BDFF"/>
<path d="M106.656 91.5793L213.313 46.9065L107.494 0L0 45.7896L106.656 91.5793Z" fill="#699CFF"/>
<path d="M40.2058 28.6633L146.455 74.9097L147.42 108.611L177.148 96.3447L176.249 62.4307L66.8561 17.3109L40.2058 28.6633Z" fill="#418DF9"/>
<path d="M140.405 140.947C142.089 140.947 143.454 138.456 143.454 135.382C143.454 132.309 142.089 129.817 140.405 129.817C138.721 129.817 137.355 132.309 137.355 135.382C137.355 138.456 138.721 140.947 140.405 140.947Z" fill="white"/>
<path d="M189.526 120.935C191.21 120.935 192.575 118.443 192.575 115.369C192.575 112.296 191.21 109.804 189.526 109.804C187.842 109.804 186.477 112.296 186.477 115.369C186.477 118.443 187.842 120.935 189.526 120.935Z" fill="white"/>
<path d="M158.073 170.328L156.093 169.559C160.48 158.265 165.981 152.044 172.444 151.067C178.626 150.132 183.834 154.391 185.724 156.774L184.06 158.094C182.753 156.446 178.177 152.349 172.762 153.167C167.185 154.009 162.106 159.944 158.073 170.328Z" fill="white"/>
</svg>
