<svg width="21" height="35" viewBox="0 0 21 35" fill="none" xmlns="http://www.w3.org/2000/svg">
<path d="M9.088 34.112V31.664C8.128 31.568 7.104 31.376 6.016 31.088C4.928 30.768 3.872 30.336 2.848 29.792C1.856 29.248 0.976 28.608 0.208 27.872L2.992 22.928C3.44 23.088 3.696 23.328 3.76 23.648C3.824 23.968 4.016 24.288 4.336 24.608C4.72 24.96 5.152 25.28 5.632 25.568C6.144 25.824 6.672 26.048 7.216 26.24C7.76 26.4 8.304 26.544 8.848 26.672V19.28C7.184 18.576 5.744 17.84 4.528 17.072C3.312 16.272 2.368 15.36 1.696 14.336C1.056 13.28 0.736 12.048 0.736 10.64C0.736 9.296 1.136 8.128 1.936 7.136C2.736 6.144 3.776 5.344 5.056 4.736C6.336 4.128 7.68 3.728 9.088 3.536V0.751999H12.832C12.96 0.783998 13.04 0.847999 13.072 0.943999C13.104 1.04 13.12 1.136 13.12 1.232C13.12 1.328 13.072 1.52 12.976 1.808C12.88 2.096 12.832 2.4 12.832 2.72V3.488C13.728 3.616 14.624 3.856 15.52 4.208C16.448 4.528 17.312 4.944 18.112 5.456C18.944 5.968 19.664 6.592 20.272 7.328L17.44 10.928C16.992 10.928 16.72 10.768 16.624 10.448C16.528 10.096 16.384 9.888 16.192 9.824C16.032 9.632 15.824 9.472 15.568 9.344C15.344 9.184 15.088 9.056 14.8 8.96C14.512 8.864 14.224 8.784 13.936 8.72C13.648 8.624 13.36 8.56 13.072 8.528V14.912C14.928 15.616 16.432 16.352 17.584 17.12C18.768 17.856 19.632 18.704 20.176 19.664C20.72 20.624 20.992 21.808 20.992 23.216C20.992 24.528 20.64 25.792 19.936 27.008C19.264 28.224 18.304 29.248 17.056 30.08C15.84 30.912 14.432 31.44 12.832 31.664V34.112H9.088ZM13.072 26.624C13.52 26.496 13.936 26.272 14.32 25.952C14.704 25.632 15.008 25.264 15.232 24.848C15.488 24.4 15.616 23.952 15.616 23.504C15.616 22.992 15.488 22.544 15.232 22.16C15.008 21.776 14.704 21.44 14.32 21.152C13.936 20.832 13.52 20.592 13.072 20.432V26.624ZM8.848 13.376V8.48C8.496 8.544 8.112 8.656 7.696 8.816C7.28 8.976 6.928 9.2 6.64 9.488C6.384 9.744 6.256 10.096 6.256 10.544C6.256 10.896 6.368 11.248 6.592 11.6C6.816 11.952 7.12 12.288 7.504 12.608C7.92 12.896 8.368 13.152 8.848 13.376Z" fill="black"/>
</svg>
