<svg width="167" height="47" viewBox="0 0 167 47" fill="none" xmlns="http://www.w3.org/2000/svg">
<g filter="url(#filter0_d_1_215)">
<path d="M0.784 34V4.096H20.32V9.472H6.64V15.232H17.776V20.608H6.64V34H0.784ZM25.312 11.392H32.272V17.584L31.504 17.392C31.6 16.432 31.84 15.568 32.224 14.8C32.64 14 33.168 13.312 33.808 12.736C34.448 12.128 35.152 11.664 35.92 11.344C36.72 11.024 37.536 10.864 38.368 10.864C39.68 10.864 40.848 11.072 41.872 11.488C42.896 11.904 43.856 12.576 44.752 13.504L41.968 19.312L41.824 19.696L41.344 19.504C41.216 19.248 41.12 18.976 41.056 18.688C40.992 18.368 40.784 18.016 40.432 17.632C40.016 17.28 39.536 16.992 38.992 16.768C38.48 16.512 37.904 16.384 37.264 16.384C36.528 16.384 35.84 16.496 35.2 16.72C34.592 16.944 34.064 17.296 33.616 17.776C33.168 18.256 32.816 18.864 32.56 19.6C32.304 20.336 32.176 21.216 32.176 22.24V34H25.312V11.392ZM55.888 34.576C54.96 34.576 54.08 34.464 53.248 34.24C52.448 34.016 51.712 33.664 51.04 33.184C50.4 32.704 49.84 32.096 49.36 31.36C48.88 30.624 48.512 29.744 48.256 28.72C48 27.664 47.872 26.464 47.872 25.12V11.392H54.688V25.12C54.688 25.856 54.736 26.48 54.832 26.992C54.96 27.504 55.136 27.936 55.36 28.288C55.584 28.608 55.84 28.848 56.128 29.008C56.448 29.136 56.784 29.2 57.136 29.2C57.744 29.2 58.272 29.104 58.72 28.912C59.2 28.72 59.584 28.432 59.872 28.048C60.192 27.632 60.416 27.136 60.544 26.56C60.704 25.984 60.784 25.312 60.784 24.544V11.392H67.648V30.352C67.648 31.12 67.664 31.792 67.696 32.368C67.76 32.912 67.904 33.456 68.128 34H62.032C61.872 33.712 61.76 33.424 61.696 33.136C61.632 32.848 61.584 32.56 61.552 32.272C61.552 31.984 61.552 31.696 61.552 31.408C61.232 31.952 60.848 32.432 60.4 32.848C59.984 33.232 59.52 33.552 59.008 33.808C58.528 34.064 58.016 34.256 57.472 34.384C56.96 34.512 56.432 34.576 55.888 34.576ZM84.352 34.576C83.168 34.576 82.08 34.384 81.088 34C80.096 33.648 79.248 33.04 78.544 32.176C77.84 31.28 77.312 30.064 76.96 28.528C76.608 26.992 76.48 25.04 76.576 22.672L77.248 6.352L84.16 5.44L84.592 5.392L84.64 5.92C84.512 6.144 84.384 6.368 84.256 6.592C84.128 6.816 84.048 7.2 84.016 7.744L83.44 15.136H83.728L83.344 22.336C83.248 24.16 83.312 25.584 83.536 26.608C83.792 27.6 84.144 28.288 84.592 28.672C85.072 29.056 85.568 29.248 86.08 29.248C87.072 29.248 87.968 29.04 88.768 28.624C89.6 28.208 90.32 27.744 90.928 27.232L92.08 31.984C90.992 32.784 89.808 33.424 88.528 33.904C87.28 34.352 85.888 34.576 84.352 34.576ZM72.448 11.392H90.592L90.496 16.672H72.352L72.448 11.392ZM97.552 34V28.72H102.928V16.672H97.792V11.392H109.744V28.72H114.64V34H97.552ZM106 8.32C104.88 8.32 103.92 7.952 103.12 7.216C102.352 6.448 101.968 5.552 101.968 4.528C101.968 3.408 102.336 2.496 103.072 1.792C103.84 1.088 104.816 0.735999 106 0.735999C107.056 0.735999 107.984 1.12 108.784 1.888C109.616 2.624 110.032 3.504 110.032 4.528C110.032 5.552 109.616 6.448 108.784 7.216C107.984 7.952 107.056 8.32 106 8.32ZM123.904 16.672H119.056V11.392H123.904V10.384C123.904 8.304 124.384 6.592 125.344 5.248C126.336 3.904 127.6 2.896 129.136 2.224C130.672 1.552 132.272 1.216 133.936 1.216C135.536 1.216 137.008 1.488 138.352 2.032C139.696 2.576 140.864 3.344 141.856 4.336L139.648 8.8L139.456 9.184L139.024 8.944C138.896 8.72 138.768 8.496 138.64 8.272C138.544 8.016 138.272 7.728 137.824 7.408C137.248 7.056 136.688 6.816 136.144 6.688C135.6 6.528 135.008 6.448 134.368 6.448C133.568 6.448 132.88 6.608 132.304 6.928C131.76 7.248 131.344 7.696 131.056 8.272C130.8 8.848 130.672 9.536 130.672 10.336V11.392H137.104V16.672H130.672V34H123.904V16.672ZM148 42.496C146.912 42.496 145.952 42.304 145.12 41.92C144.288 41.536 143.408 40.992 142.48 40.288L144.64 35.632L144.784 35.248L145.264 35.44C145.392 35.664 145.52 35.904 145.648 36.16C145.776 36.416 146.048 36.704 146.464 37.024C146.656 37.152 146.864 37.248 147.088 37.312C147.344 37.376 147.6 37.408 147.856 37.408C148.368 37.408 148.816 37.248 149.2 36.928C149.584 36.64 149.952 36.176 150.304 35.536C150.656 34.896 151.024 34.048 151.408 32.992L156.688 18.784C157.168 17.472 157.536 16.24 157.792 15.088C158.048 13.904 158.176 12.672 158.176 11.392H164.272C164.24 12.832 163.92 14.384 163.312 16.048C162.736 17.68 162.176 19.216 161.632 20.656L156.064 35.584C155.104 38.144 153.968 39.936 152.656 40.96C151.344 41.984 149.792 42.496 148 42.496ZM143.008 11.392H149.68L155.872 27.616L152.176 34.432L143.008 11.392Z" fill="white"/>
</g>
<defs>
<filter id="filter0_d_1_215" x="0.783936" y="0.735962" width="165.488" height="45.76" filterUnits="userSpaceOnUse" color-interpolation-filters="sRGB">
<feFlood flood-opacity="0" result="BackgroundImageFix"/>
<feColorMatrix in="SourceAlpha" type="matrix" values="0 0 0 0 0 0 0 0 0 0 0 0 0 0 0 0 0 0 127 0" result="hardAlpha"/>
<feOffset dx="2" dy="4"/>
<feComposite in2="hardAlpha" operator="out"/>
<feColorMatrix type="matrix" values="0 0 0 0 0 0 0 0 0 0 0 0 0 0 0 0 0 0 1 0"/>
<feBlend mode="normal" in2="BackgroundImageFix" result="effect1_dropShadow_1_215"/>
<feBlend mode="normal" in="SourceGraphic" in2="effect1_dropShadow_1_215" result="shape"/>
</filter>
</defs>
</svg>
