<svg width="24" height="32" viewBox="0 0 24 32" fill="none" xmlns="http://www.w3.org/2000/svg">
<path d="M1.296 31L18.288 1.096H23.184L6.048 31H1.296ZM17.52 31.48C16.464 31.48 15.472 31.192 14.544 30.616C13.648 30.04 12.928 29.256 12.384 28.264C11.84 27.272 11.568 26.152 11.568 24.904C11.568 23.688 11.84 22.584 12.384 21.592C12.928 20.6 13.648 19.816 14.544 19.24C15.472 18.664 16.464 18.376 17.52 18.376C18.608 18.376 19.6 18.68 20.496 19.288C21.392 19.864 22.112 20.648 22.656 21.64C23.2 22.632 23.472 23.736 23.472 24.952C23.472 26.232 23.216 27.368 22.704 28.36C22.192 29.32 21.488 30.088 20.592 30.664C19.696 31.208 18.672 31.48 17.52 31.48ZM17.52 27.592C17.936 27.592 18.272 27.48 18.528 27.256C18.784 27 18.976 26.68 19.104 26.296C19.232 25.88 19.296 25.432 19.296 24.952C19.296 24.472 19.232 24.024 19.104 23.608C18.976 23.192 18.784 22.872 18.528 22.648C18.272 22.392 17.936 22.264 17.52 22.264C17.136 22.264 16.8 22.392 16.512 22.648C16.256 22.872 16.064 23.192 15.936 23.608C15.808 24.024 15.744 24.472 15.744 24.952C15.744 25.432 15.808 25.88 15.936 26.296C16.064 26.68 16.256 27 16.512 27.256C16.8 27.48 17.136 27.592 17.52 27.592ZM6.576 13.672C5.52 13.672 4.528 13.384 3.6 12.808C2.704 12.232 1.984 11.448 1.44 10.456C0.896 9.464 0.624 8.344 0.624 7.096C0.624 5.88 0.896 4.776 1.44 3.784C1.984 2.792 2.704 2.008 3.6 1.432C4.528 0.855999 5.52 0.568 6.576 0.568C7.664 0.568 8.656 0.872 9.552 1.48C10.448 2.056 11.168 2.84 11.712 3.832C12.256 4.824 12.528 5.928 12.528 7.144C12.528 8.424 12.272 9.56 11.76 10.552C11.248 11.512 10.544 12.28 9.648 12.856C8.752 13.4 7.728 13.672 6.576 13.672ZM6.576 9.784C6.992 9.784 7.328 9.672 7.584 9.448C7.84 9.192 8.032 8.872 8.16 8.488C8.288 8.072 8.352 7.624 8.352 7.144C8.352 6.792 8.304 6.456 8.208 6.136C8.144 5.816 8.032 5.528 7.872 5.272C7.744 5.016 7.568 4.824 7.344 4.696C7.12 4.536 6.864 4.456 6.576 4.456C6.16 4.456 5.824 4.584 5.568 4.84C5.312 5.064 5.12 5.384 4.992 5.8C4.864 6.216 4.8 6.664 4.8 7.144C4.8 7.624 4.864 8.072 4.992 8.488C5.12 8.872 5.312 9.192 5.568 9.448C5.824 9.672 6.16 9.784 6.576 9.784Z" fill="black"/>
</svg>
